<?xml version="1.0" encoding="utf-8"?>
<!-- Generator: Adobe Illustrator 24.3.0, SVG Export Plug-In . SVG Version: 6.00 Build 0)  -->
<svg version="1.1" id="Слой_1" xmlns="http://www.w3.org/2000/svg" xmlns:xlink="http://www.w3.org/1999/xlink" x="0px" y="0px"
	 viewBox="250 0 100 850" style="enable-background:new 0 0 595.28 841.89;" xml:space="preserve">
<style type="text/css">
	.st0{fill:url(#SVGID_1_);}
</style>
<g>
	
	<linearGradient id="SVGID_1_" gradientUnits="userSpaceOnUse" x1="276.8123" y1="420.9449" x2="318.4633" y2="420.9449">
		<stop  offset="0" style="stop-color:#B38D5D"/>
		<stop  offset="0.1872" style="stop-color:#8D6E3F"/>
		<stop  offset="0.3884" style="stop-color:#C79D61"/>
		<stop  offset="0.5455" style="stop-color:#EEBD78"/>
		<stop  offset="0.6275" style="stop-color:#FDC981"/>
		<stop  offset="0.7036" style="stop-color:#EBBB77"/>
		<stop  offset="0.8545" style="stop-color:#BE965C"/>
		<stop  offset="1" style="stop-color:#8D6E3F"/>
	</linearGradient>
	<path class="st0" d="M299.09,453.78c0,0.89-0.72,1.61-1.61,1.61h-5.25c-0.01,0-0.02,0-0.03,0c-0.07,0-0.14,0-0.21-0.01
		c-0.14-0.02-0.27-0.05-0.4-0.11c-0.26-0.11-0.5-0.28-0.68-0.53l-13.76-18.49c-0.08-0.1-0.15-0.21-0.2-0.33
		c-0.08-0.18-0.12-0.36-0.14-0.55c-0.02-0.23,0.02-0.46,0.1-0.67c0.08-0.21,0.21-0.41,0.38-0.58c0.13-0.13,0.29-0.24,0.47-0.32
		c0.12-0.05,0.24-0.09,0.37-0.11c9.88-2.02,13.06-4.86,13.98-6.89c0.37-0.81,1.32-1.16,2.13-0.79c0.81,0.37,1.16,1.32,0.79,2.13
		c-1.66,3.63-6.2,6.31-13.85,8.17l11.81,15.88h4.47C298.37,452.18,299.09,452.9,299.09,453.78z M309.35,434.9
		c0.18,0.06,0.36,0.1,0.54,0.1c0.66,0,1.28-0.41,1.51-1.07c0.3-0.84-0.13-1.76-0.97-2.06c-3.88-1.39-6.4-3.15-7.28-5.08
		c-0.37-0.81-1.32-1.16-2.13-0.8c-0.81,0.37-1.16,1.32-0.8,2.13C301.5,430.9,304.57,433.18,309.35,434.9z M291.97,408.24
		c-0.68,0.36-1.38,0.73-2.06,1.11c-1.42,0.8-2.78,1.74-3.13,3.22c-0.3,1.3,0.31,2.42,0.87,3.25c1.29,1.9,4.81,6.34,9.47,6.34
		c1.44,0,2.87-0.46,4.63-1.49c4.2-2.45,6.81-7.1,6.81-12.15c0-2.11-0.34-4.05-1.01-5.78c-0.32-0.83-1.25-1.24-2.08-0.92
		c-0.83,0.32-1.24,1.25-0.92,2.08c0.52,1.36,0.79,2.91,0.79,4.62c0,3.9-2,7.49-5.21,9.37c-1.24,0.72-2.17,1.05-3.01,1.05
		c-2.55,0-5.19-2.55-6.81-4.93c-0.29-0.43-0.37-0.64-0.39-0.72c0.07-0.11,0.37-0.47,1.56-1.14c0.64-0.36,1.32-0.72,1.98-1.07
		c3.67-1.93,7.46-3.93,8.12-7.91c0.59-3.56-0.68-5.72-1.84-6.9c-1.88-1.91-4.91-2.71-8.32-2.21c-0.88,0.13-1.49,0.95-1.36,1.83
		c0.13,0.88,0.95,1.49,1.83,1.36c2.38-0.35,4.41,0.11,5.56,1.28c0.93,0.95,1.26,2.34,0.96,4.12
		C298.02,405.05,295.08,406.6,291.97,408.24z M303.5,442.94c-0.89,0-1.61,0.72-1.61,1.61v9.11c0,0.89,0.72,1.61,1.61,1.61
		s1.61-0.72,1.61-1.61v-9.11C305.11,443.66,304.39,442.94,303.5,442.94z M310.18,447.96c-0.89,0-1.61,0.72-1.61,1.61v4.09
		c0,0.89,0.72,1.61,1.61,1.61c0.89,0,1.61-0.72,1.61-1.61v-4.09C311.79,448.68,311.07,447.96,310.18,447.96z M316.85,429.36
		c-0.89,0-1.61,0.72-1.61,1.61v22.68c0,0.89,0.72,1.61,1.61,1.61s1.61-0.72,1.61-1.61v-22.68
		C318.46,430.08,317.74,429.36,316.85,429.36z M316.18,405.2c0-10.31-8.39-18.7-18.7-18.7c-10.31,0-18.7,8.39-18.7,18.7v13.44
		c0,4.64,3.78,8.42,8.42,8.42c0.89,0,1.61-0.72,1.61-1.61s-0.72-1.61-1.61-1.61c-2.87,0-5.2-2.33-5.2-5.2V405.2
		c0-8.54,6.95-15.48,15.49-15.48c8.54,0,15.49,6.95,15.49,15.48v13.44c0,2.87-2.33,5.2-5.2,5.2c-0.89,0-1.61,0.72-1.61,1.61
		s0.72,1.61,1.61,1.61c4.64,0,8.42-3.78,8.42-8.42V405.2L316.18,405.2z"/>
</g>
</svg>
