<?xml version="1.0" encoding="utf-8"?>
<!-- Generator: Adobe Illustrator 24.3.0, SVG Export Plug-In . SVG Version: 6.00 Build 0)  -->
<svg version="1.1" id="Слой_1" xmlns="http://www.w3.org/2000/svg" xmlns:xlink="http://www.w3.org/1999/xlink" x="0px" y="0px"
	 viewBox="250 0 100 850" style="enable-background:new 0 0 595.28 841.89;" xml:space="preserve">
<style type="text/css">
	.st0{fill:url(#SVGID_1_);}
	.st1{fill:url(#SVGID_2_);}
	.st2{fill:url(#SVGID_3_);}
	.st3{fill:url(#SVGID_4_);}
	.st4{fill:url(#SVGID_5_);}
	.st5{fill:url(#SVGID_6_);}
	.st6{fill:url(#SVGID_7_);}
	.st7{fill:url(#SVGID_8_);}
	.st8{fill:url(#SVGID_9_);}
</style>
<g>
	<g>
		<linearGradient id="SVGID_1_" gradientUnits="userSpaceOnUse" x1="296.1393" y1="437.4116" x2="309.4549" y2="437.4116">
			<stop  offset="0" style="stop-color:#B38D5D"/>
			<stop  offset="0.1872" style="stop-color:#8D6E3F"/>
			<stop  offset="0.3884" style="stop-color:#C79D61"/>
			<stop  offset="0.5455" style="stop-color:#EEBD78"/>
			<stop  offset="0.6275" style="stop-color:#FDC981"/>
			<stop  offset="0.7036" style="stop-color:#EBBB77"/>
			<stop  offset="0.8545" style="stop-color:#BE965C"/>
			<stop  offset="1" style="stop-color:#8D6E3F"/>
		</linearGradient>
		<path class="st0" d="M308.51,438.36h-11.43c-0.52,0-0.94-0.42-0.94-0.94c0-0.52,0.42-0.94,0.94-0.94h11.43
			c0.52,0,0.94,0.42,0.94,0.94C309.45,437.93,309.03,438.36,308.51,438.36z"/>
		<linearGradient id="SVGID_2_" gradientUnits="userSpaceOnUse" x1="276.8819" y1="435.4174" x2="278.7701" y2="435.4174">
			<stop  offset="0" style="stop-color:#B38D5D"/>
			<stop  offset="0.1872" style="stop-color:#8D6E3F"/>
			<stop  offset="0.3884" style="stop-color:#C79D61"/>
			<stop  offset="0.5455" style="stop-color:#EEBD78"/>
			<stop  offset="0.6275" style="stop-color:#FDC981"/>
			<stop  offset="0.7036" style="stop-color:#EBBB77"/>
			<stop  offset="0.8545" style="stop-color:#BE965C"/>
			<stop  offset="1" style="stop-color:#8D6E3F"/>
		</linearGradient>
		<path class="st1" d="M277.83,437.46c-0.52,0-0.94-0.42-0.94-0.94v-2.2c0-0.52,0.42-0.94,0.94-0.94s0.94,0.42,0.94,0.94v2.2
			C278.77,437.04,278.35,437.46,277.83,437.46z"/>
		<linearGradient id="SVGID_3_" gradientUnits="userSpaceOnUse" x1="276.8819" y1="442.5173" x2="278.7701" y2="442.5173">
			<stop  offset="0" style="stop-color:#B38D5D"/>
			<stop  offset="0.1872" style="stop-color:#8D6E3F"/>
			<stop  offset="0.3884" style="stop-color:#C79D61"/>
			<stop  offset="0.5455" style="stop-color:#EEBD78"/>
			<stop  offset="0.6275" style="stop-color:#FDC981"/>
			<stop  offset="0.7036" style="stop-color:#EBBB77"/>
			<stop  offset="0.8545" style="stop-color:#BE965C"/>
			<stop  offset="1" style="stop-color:#8D6E3F"/>
		</linearGradient>
		<path class="st2" d="M277.83,449.46c-0.52,0-0.94-0.42-0.94-0.94v-12c0-0.52,0.42-0.94,0.94-0.94s0.94,0.42,0.94,0.94v12
			C278.77,449.04,278.35,449.46,277.83,449.46z"/>
		<linearGradient id="SVGID_4_" gradientUnits="userSpaceOnUse" x1="267.8246" y1="440.2227" x2="327.4509" y2="440.2227">
			<stop  offset="0" style="stop-color:#B38D5D"/>
			<stop  offset="0.1872" style="stop-color:#8D6E3F"/>
			<stop  offset="0.3884" style="stop-color:#C79D61"/>
			<stop  offset="0.5455" style="stop-color:#EEBD78"/>
			<stop  offset="0.6275" style="stop-color:#FDC981"/>
			<stop  offset="0.7036" style="stop-color:#EBBB77"/>
			<stop  offset="0.8545" style="stop-color:#BE965C"/>
			<stop  offset="1" style="stop-color:#8D6E3F"/>
		</linearGradient>
		<path class="st3" d="M277.83,452.69h-8.87c-0.62,0-1.13-0.51-1.13-1.13v-22.69c0-0.62,0.51-1.13,1.13-1.13h8.87
			c0.52,0,0.94,0.42,0.94,0.94v4.28l8.92-3.19c1.87-0.67,3.87-0.78,5.8-0.32l11.58,1.54c3.29,0.63,3.61,3.76,3.33,5.32l0.03,0.12
			l12.57-7.74c0.62-0.38,1.29-0.65,2-0.79c1.29-0.26,2.58,0.17,3.47,1.14c0.89,0.98,1.2,2.32,0.82,3.6
			c-0.34,1.17-0.94,2.27-1.71,3.19c-0.61,0.73-1.28,1.33-1.93,1.9c-0.21,0.19-0.42,0.38-0.63,0.57c-0.58,0.53-1.18,1.03-1.8,1.47
			l-11.28,8.08c-1.45,1.04-3.16,1.59-4.95,1.59h-26.22v2.29C278.77,452.27,278.35,452.69,277.83,452.69z M269.71,450.81h7.17v-2.29
			c0-0.52,0.42-0.94,0.94-0.94h27.17c1.39,0,2.72-0.43,3.85-1.24l11.28-8.08c0.55-0.39,1.09-0.84,1.62-1.32
			c0.22-0.2,0.44-0.4,0.66-0.59c0.62-0.56,1.21-1.08,1.74-1.71c0.61-0.72,1.07-1.59,1.34-2.51c0.19-0.64,0.03-1.3-0.41-1.79
			c-0.44-0.48-1.06-0.69-1.71-0.56c-0.49,0.1-0.95,0.28-1.37,0.54l-12.48,7.74c-0.67,0.42-1.53,0.39-2.18-0.07
			c-0.65-0.46-0.96-1.25-0.79-2.03c0.04-0.24,0.39-2.67-1.78-3.09l-11.57-1.54c-0.03,0-0.06-0.01-0.1-0.02
			c-1.59-0.38-3.24-0.29-4.77,0.26l-10.18,3.64c-0.29,0.1-0.61,0.06-0.86-0.12c-0.25-0.18-0.4-0.46-0.4-0.77v-4.68h-7.17V450.81z"/>
		<linearGradient id="SVGID_5_" gradientUnits="userSpaceOnUse" x1="270.2358" y1="435.2303" x2="276.3481" y2="435.2303">
			<stop  offset="0" style="stop-color:#B38D5D"/>
			<stop  offset="0.1872" style="stop-color:#8D6E3F"/>
			<stop  offset="0.3884" style="stop-color:#C79D61"/>
			<stop  offset="0.5455" style="stop-color:#EEBD78"/>
			<stop  offset="0.6275" style="stop-color:#FDC981"/>
			<stop  offset="0.7036" style="stop-color:#EBBB77"/>
			<stop  offset="0.8545" style="stop-color:#BE965C"/>
			<stop  offset="1" style="stop-color:#8D6E3F"/>
		</linearGradient>
		<path class="st4" d="M273.29,438.29c-1.69,0-3.06-1.37-3.06-3.06c0-1.69,1.37-3.06,3.06-3.06c1.69,0,3.06,1.37,3.06,3.06
			C276.35,436.92,274.98,438.29,273.29,438.29z M273.29,434.06c-0.64,0-1.17,0.52-1.17,1.17c0,0.64,0.52,1.17,1.17,1.17
			c0.64,0,1.17-0.52,1.17-1.17C274.46,434.59,273.94,434.06,273.29,434.06z"/>
		<linearGradient id="SVGID_6_" gradientUnits="userSpaceOnUse" x1="281.9463" y1="399.7905" x2="293.8688" y2="399.7905">
			<stop  offset="0" style="stop-color:#B38D5D"/>
			<stop  offset="0.1872" style="stop-color:#8D6E3F"/>
			<stop  offset="0.3884" style="stop-color:#C79D61"/>
			<stop  offset="0.5455" style="stop-color:#EEBD78"/>
			<stop  offset="0.6275" style="stop-color:#FDC981"/>
			<stop  offset="0.7036" style="stop-color:#EBBB77"/>
			<stop  offset="0.8545" style="stop-color:#BE965C"/>
			<stop  offset="1" style="stop-color:#8D6E3F"/>
		</linearGradient>
		<path class="st5" d="M282.89,403.81c-0.32,0-0.63-0.16-0.81-0.45c-0.27-0.44-0.13-1.03,0.31-1.3l10.03-6.16
			c0.44-0.27,1.03-0.13,1.3,0.31c0.27,0.44,0.13,1.03-0.31,1.3l-10.03,6.16C283.23,403.77,283.06,403.81,282.89,403.81z"/>
		<linearGradient id="SVGID_7_" gradientUnits="userSpaceOnUse" x1="302.0947" y1="399.7907" x2="314.0176" y2="399.7907">
			<stop  offset="0" style="stop-color:#B38D5D"/>
			<stop  offset="0.1872" style="stop-color:#8D6E3F"/>
			<stop  offset="0.3884" style="stop-color:#C79D61"/>
			<stop  offset="0.5455" style="stop-color:#EEBD78"/>
			<stop  offset="0.6275" style="stop-color:#FDC981"/>
			<stop  offset="0.7036" style="stop-color:#EBBB77"/>
			<stop  offset="0.8545" style="stop-color:#BE965C"/>
			<stop  offset="1" style="stop-color:#8D6E3F"/>
		</linearGradient>
		<path class="st6" d="M313.07,403.81c-0.17,0-0.34-0.04-0.49-0.14l-10.03-6.16c-0.44-0.27-0.58-0.85-0.31-1.3
			c0.27-0.44,0.85-0.58,1.3-0.31l10.03,6.16c0.44,0.27,0.58,0.85,0.31,1.3C313.7,403.65,313.39,403.81,313.07,403.81z"/>
		<linearGradient id="SVGID_8_" gradientUnits="userSpaceOnUse" x1="276.5404" y1="407.7365" x2="319.423" y2="407.7365">
			<stop  offset="0" style="stop-color:#B38D5D"/>
			<stop  offset="0.1872" style="stop-color:#8D6E3F"/>
			<stop  offset="0.3884" style="stop-color:#C79D61"/>
			<stop  offset="0.5455" style="stop-color:#EEBD78"/>
			<stop  offset="0.6275" style="stop-color:#FDC981"/>
			<stop  offset="0.7036" style="stop-color:#EBBB77"/>
			<stop  offset="0.8545" style="stop-color:#BE965C"/>
			<stop  offset="1" style="stop-color:#8D6E3F"/>
		</linearGradient>
		<path class="st7" d="M313.07,426.28h-30.18c-0.52,0-0.94-0.42-0.94-0.94v-21.52h-4.46c-0.42,0-0.79-0.28-0.91-0.68
			c-0.12-0.41,0.05-0.84,0.41-1.06l20.5-12.73c0.31-0.19,0.69-0.19,1,0l7.17,4.45v-1.16c0-0.52,0.42-0.94,0.94-0.94h5.2
			c0.52,0,0.94,0.42,0.94,0.94v5.56l6.24,3.87c0.36,0.22,0.53,0.66,0.41,1.06c-0.12,0.41-0.49,0.68-0.91,0.68h-4.46v21.52
			C314.02,425.86,313.59,426.28,313.07,426.28z M283.83,424.39h28.29v-21.52c0-0.52,0.42-0.94,0.94-0.94h2.1l-3.87-2.4
			c-0.28-0.17-0.45-0.48-0.45-0.8v-5.14h-3.31v1.91c0,0.34-0.19,0.66-0.49,0.83c-0.3,0.17-0.67,0.16-0.96-0.02l-8.11-5.04
			l-17.19,10.67h2.1c0.52,0,0.94,0.42,0.94,0.94V424.39z"/>
		<linearGradient id="SVGID_9_" gradientUnits="userSpaceOnUse" x1="292.5074" y1="418.4554" x2="303.4561" y2="418.4554">
			<stop  offset="0" style="stop-color:#B38D5D"/>
			<stop  offset="0.1872" style="stop-color:#8D6E3F"/>
			<stop  offset="0.3884" style="stop-color:#C79D61"/>
			<stop  offset="0.5455" style="stop-color:#EEBD78"/>
			<stop  offset="0.6275" style="stop-color:#FDC981"/>
			<stop  offset="0.7036" style="stop-color:#EBBB77"/>
			<stop  offset="0.8545" style="stop-color:#BE965C"/>
			<stop  offset="1" style="stop-color:#8D6E3F"/>
		</linearGradient>
		<path class="st8" d="M302.51,426.28h-9.06c-0.52,0-0.94-0.42-0.94-0.94v-13.76c0-0.52,0.42-0.94,0.94-0.94h9.06
			c0.52,0,0.94,0.42,0.94,0.94v13.76C303.46,425.86,303.03,426.28,302.51,426.28z M294.4,424.39h7.17v-11.87h-7.17V424.39z"/>
	</g>
</g>
</svg>
