<?xml version="1.0" encoding="utf-8"?>
<!-- Generator: Adobe Illustrator 24.3.0, SVG Export Plug-In . SVG Version: 6.00 Build 0)  -->
<svg version="1.1" id="Слой_1" xmlns="http://www.w3.org/2000/svg" xmlns:xlink="http://www.w3.org/1999/xlink" x="0px" y="0px"
	 viewBox="250 0 100 850" style="enable-background:new 0 0 595.28 841.89;" xml:space="preserve">
<style type="text/css">
	.st0{fill:url(#SVGID_1_);}
	.st1{fill:url(#SVGID_2_);}
	.st2{fill:url(#SVGID_3_);}
	.st3{fill:url(#SVGID_4_);}
	.st4{fill:url(#SVGID_5_);}
	.st5{fill:url(#SVGID_6_);}
	.st6{fill:url(#SVGID_7_);}
	.st7{fill:url(#SVGID_8_);}
	.st8{fill:url(#SVGID_9_);}
	.st9{fill:url(#SVGID_10_);}
	.st10{fill:url(#SVGID_11_);}
	.st11{fill:url(#SVGID_12_);}
	.st12{fill:url(#SVGID_13_);}
	.st13{fill:url(#SVGID_14_);}
	.st14{fill:url(#SVGID_15_);}
	.st15{fill:url(#SVGID_16_);}
	.st16{fill:url(#SVGID_17_);}
	.st17{fill:url(#SVGID_18_);}
</style>
<g>
	<g>
		<linearGradient id="SVGID_1_" gradientUnits="userSpaceOnUse" x1="277.4103" y1="424.7785" x2="318.3982" y2="424.7785">
			<stop  offset="0" style="stop-color:#B38D5D"/>
			<stop  offset="0.1872" style="stop-color:#8D6E3F"/>
			<stop  offset="0.3884" style="stop-color:#C79D61"/>
			<stop  offset="0.5455" style="stop-color:#EEBD78"/>
			<stop  offset="0.6275" style="stop-color:#FDC981"/>
			<stop  offset="0.7036" style="stop-color:#EBBB77"/>
			<stop  offset="0.8545" style="stop-color:#BE965C"/>
			<stop  offset="1" style="stop-color:#8D6E3F"/>
		</linearGradient>
		<path class="st0" d="M305.27,451.37h-26.93c-0.52,0-0.93-0.42-0.93-0.93v-51.31c0-0.52,0.42-0.93,0.93-0.93h39.12
			c0.52,0,0.93,0.42,0.93,0.93v12.78c0,0.52-0.42,0.93-0.93,0.93c-0.52,0-0.93-0.42-0.93-0.93v-11.84h-37.26v49.45h26
			c0.52,0,0.93,0.42,0.93,0.93C306.2,450.95,305.79,451.37,305.27,451.37z"/>
		<linearGradient id="SVGID_2_" gradientUnits="userSpaceOnUse" x1="268.4648" y1="417.1109" x2="309.4531" y2="417.1109">
			<stop  offset="0" style="stop-color:#B38D5D"/>
			<stop  offset="0.1872" style="stop-color:#8D6E3F"/>
			<stop  offset="0.3884" style="stop-color:#C79D61"/>
			<stop  offset="0.5455" style="stop-color:#EEBD78"/>
			<stop  offset="0.6275" style="stop-color:#FDC981"/>
			<stop  offset="0.7036" style="stop-color:#EBBB77"/>
			<stop  offset="0.8545" style="stop-color:#BE965C"/>
			<stop  offset="1" style="stop-color:#8D6E3F"/>
		</linearGradient>
		<path class="st1" d="M273.87,443.7h-4.47c-0.52,0-0.93-0.42-0.93-0.93v-51.31c0-0.52,0.42-0.93,0.93-0.93h39.12
			c0.52,0,0.93,0.42,0.93,0.93v3.83c0,0.52-0.42,0.93-0.93,0.93H274.8v46.55C274.8,443.28,274.39,443.7,273.87,443.7z
			 M270.33,441.83h2.61v-46.54c0-0.52,0.42-0.93,0.93-0.93h33.72v-1.97h-37.26V441.83z"/>
		<linearGradient id="SVGID_3_" gradientUnits="userSpaceOnUse" x1="272.9378" y1="420.9447" x2="313.9257" y2="420.9447">
			<stop  offset="0" style="stop-color:#B38D5D"/>
			<stop  offset="0.1872" style="stop-color:#8D6E3F"/>
			<stop  offset="0.3884" style="stop-color:#C79D61"/>
			<stop  offset="0.5455" style="stop-color:#EEBD78"/>
			<stop  offset="0.6275" style="stop-color:#FDC981"/>
			<stop  offset="0.7036" style="stop-color:#EBBB77"/>
			<stop  offset="0.8545" style="stop-color:#BE965C"/>
			<stop  offset="1" style="stop-color:#8D6E3F"/>
		</linearGradient>
		<path class="st2" d="M278.34,447.53h-4.47c-0.52,0-0.93-0.42-0.93-0.93v-51.31c0-0.52,0.42-0.93,0.93-0.93h39.12
			c0.52,0,0.93,0.42,0.93,0.93v3.83c0,0.52-0.42,0.93-0.93,0.93h-33.72v46.55C279.28,447.12,278.86,447.53,278.34,447.53z
			 M274.8,445.67h2.61v-46.55c0-0.52,0.42-0.93,0.93-0.93h33.72v-1.97H274.8V445.67z"/>
		<linearGradient id="SVGID_4_" gradientUnits="userSpaceOnUse" x1="309.235" y1="448.3062" x2="324.5477" y2="448.3062">
			<stop  offset="0" style="stop-color:#B38D5D"/>
			<stop  offset="0.1872" style="stop-color:#8D6E3F"/>
			<stop  offset="0.3884" style="stop-color:#C79D61"/>
			<stop  offset="0.5455" style="stop-color:#EEBD78"/>
			<stop  offset="0.6275" style="stop-color:#FDC981"/>
			<stop  offset="0.7036" style="stop-color:#EBBB77"/>
			<stop  offset="0.8545" style="stop-color:#BE965C"/>
			<stop  offset="1" style="stop-color:#8D6E3F"/>
		</linearGradient>
		<path class="st3" d="M323.61,451.37h-13.45c-0.52,0-0.93-0.42-0.93-0.93v-4.26c0-0.52,0.42-0.93,0.93-0.93h13.45
			c0.52,0,0.93,0.42,0.93,0.93v4.26C324.55,450.95,324.13,451.37,323.61,451.37z M311.1,449.5h11.58v-2.39H311.1V449.5z"/>
		<linearGradient id="SVGID_5_" gradientUnits="userSpaceOnUse" x1="310.8673" y1="444.0496" x2="326.18" y2="444.0496">
			<stop  offset="0" style="stop-color:#B38D5D"/>
			<stop  offset="0.1872" style="stop-color:#8D6E3F"/>
			<stop  offset="0.3884" style="stop-color:#C79D61"/>
			<stop  offset="0.5455" style="stop-color:#EEBD78"/>
			<stop  offset="0.6275" style="stop-color:#FDC981"/>
			<stop  offset="0.7036" style="stop-color:#EBBB77"/>
			<stop  offset="0.8545" style="stop-color:#BE965C"/>
			<stop  offset="1" style="stop-color:#8D6E3F"/>
		</linearGradient>
		<path class="st4" d="M325.25,447.11H311.8c-0.52,0-0.93-0.42-0.93-0.93v-4.26c0-0.52,0.42-0.93,0.93-0.93h13.45
			c0.52,0,0.93,0.42,0.93,0.93v4.26C326.18,446.69,325.76,447.11,325.25,447.11z M312.73,445.25h11.58v-2.39h-11.58V445.25z"/>
		<linearGradient id="SVGID_6_" gradientUnits="userSpaceOnUse" x1="309.235" y1="439.7929" x2="324.5477" y2="439.7929">
			<stop  offset="0" style="stop-color:#B38D5D"/>
			<stop  offset="0.1872" style="stop-color:#8D6E3F"/>
			<stop  offset="0.3884" style="stop-color:#C79D61"/>
			<stop  offset="0.5455" style="stop-color:#EEBD78"/>
			<stop  offset="0.6275" style="stop-color:#FDC981"/>
			<stop  offset="0.7036" style="stop-color:#EBBB77"/>
			<stop  offset="0.8545" style="stop-color:#BE965C"/>
			<stop  offset="1" style="stop-color:#8D6E3F"/>
		</linearGradient>
		<path class="st5" d="M323.61,442.85h-13.45c-0.52,0-0.93-0.42-0.93-0.93v-4.26c0-0.52,0.42-0.93,0.93-0.93h13.45
			c0.52,0,0.93,0.42,0.93,0.93v4.26C324.55,442.44,324.13,442.85,323.61,442.85z M311.1,440.99h11.58v-2.39H311.1V440.99z"/>
		<linearGradient id="SVGID_7_" gradientUnits="userSpaceOnUse" x1="309.235" y1="435.5363" x2="324.5477" y2="435.5363">
			<stop  offset="0" style="stop-color:#B38D5D"/>
			<stop  offset="0.1872" style="stop-color:#8D6E3F"/>
			<stop  offset="0.3884" style="stop-color:#C79D61"/>
			<stop  offset="0.5455" style="stop-color:#EEBD78"/>
			<stop  offset="0.6275" style="stop-color:#FDC981"/>
			<stop  offset="0.7036" style="stop-color:#EBBB77"/>
			<stop  offset="0.8545" style="stop-color:#BE965C"/>
			<stop  offset="1" style="stop-color:#8D6E3F"/>
		</linearGradient>
		<path class="st6" d="M323.61,438.6h-13.45c-0.52,0-0.93-0.42-0.93-0.93v-4.26c0-0.52,0.42-0.93,0.93-0.93h13.45
			c0.52,0,0.93,0.42,0.93,0.93v4.26C324.55,438.18,324.13,438.6,323.61,438.6z M311.1,436.73h11.58v-2.39H311.1V436.73z"/>
		<linearGradient id="SVGID_8_" gradientUnits="userSpaceOnUse" x1="283.563" y1="407.623" x2="312.2455" y2="407.623">
			<stop  offset="0" style="stop-color:#B38D5D"/>
			<stop  offset="0.1872" style="stop-color:#8D6E3F"/>
			<stop  offset="0.3884" style="stop-color:#C79D61"/>
			<stop  offset="0.5455" style="stop-color:#EEBD78"/>
			<stop  offset="0.6275" style="stop-color:#FDC981"/>
			<stop  offset="0.7036" style="stop-color:#EBBB77"/>
			<stop  offset="0.8545" style="stop-color:#BE965C"/>
			<stop  offset="1" style="stop-color:#8D6E3F"/>
		</linearGradient>
		<path class="st7" d="M311.31,408.56H284.5c-0.52,0-0.93-0.42-0.93-0.93c0-0.52,0.42-0.93,0.93-0.93h26.82
			c0.52,0,0.93,0.42,0.93,0.93C312.25,408.14,311.83,408.56,311.31,408.56z"/>
		<linearGradient id="SVGID_9_" gradientUnits="userSpaceOnUse" x1="283.563" y1="413.3753" x2="312.2455" y2="413.3753">
			<stop  offset="0" style="stop-color:#B38D5D"/>
			<stop  offset="0.1872" style="stop-color:#8D6E3F"/>
			<stop  offset="0.3884" style="stop-color:#C79D61"/>
			<stop  offset="0.5455" style="stop-color:#EEBD78"/>
			<stop  offset="0.6275" style="stop-color:#FDC981"/>
			<stop  offset="0.7036" style="stop-color:#EBBB77"/>
			<stop  offset="0.8545" style="stop-color:#BE965C"/>
			<stop  offset="1" style="stop-color:#8D6E3F"/>
		</linearGradient>
		<path class="st8" d="M311.31,414.31H284.5c-0.52,0-0.93-0.42-0.93-0.93c0-0.52,0.42-0.93,0.93-0.93h26.82
			c0.52,0,0.93,0.42,0.93,0.93C312.25,413.89,311.83,414.31,311.31,414.31z"/>
		<linearGradient id="SVGID_10_" gradientUnits="userSpaceOnUse" x1="283.563" y1="419.1277" x2="306.8643" y2="419.1277">
			<stop  offset="0" style="stop-color:#B38D5D"/>
			<stop  offset="0.1872" style="stop-color:#8D6E3F"/>
			<stop  offset="0.3884" style="stop-color:#C79D61"/>
			<stop  offset="0.5455" style="stop-color:#EEBD78"/>
			<stop  offset="0.6275" style="stop-color:#FDC981"/>
			<stop  offset="0.7036" style="stop-color:#EBBB77"/>
			<stop  offset="0.8545" style="stop-color:#BE965C"/>
			<stop  offset="1" style="stop-color:#8D6E3F"/>
		</linearGradient>
		<path class="st9" d="M305.93,420.06H284.5c-0.52,0-0.93-0.42-0.93-0.93c0-0.52,0.42-0.93,0.93-0.93h21.44
			c0.52,0,0.93,0.42,0.93,0.93C306.86,419.64,306.45,420.06,305.93,420.06z"/>
		<linearGradient id="SVGID_11_" gradientUnits="userSpaceOnUse" x1="283.563" y1="424.8791" x2="305.3486" y2="424.8791">
			<stop  offset="0" style="stop-color:#B38D5D"/>
			<stop  offset="0.1872" style="stop-color:#8D6E3F"/>
			<stop  offset="0.3884" style="stop-color:#C79D61"/>
			<stop  offset="0.5455" style="stop-color:#EEBD78"/>
			<stop  offset="0.6275" style="stop-color:#FDC981"/>
			<stop  offset="0.7036" style="stop-color:#EBBB77"/>
			<stop  offset="0.8545" style="stop-color:#BE965C"/>
			<stop  offset="1" style="stop-color:#8D6E3F"/>
		</linearGradient>
		<path class="st10" d="M304.42,425.81H284.5c-0.52,0-0.93-0.42-0.93-0.93c0-0.52,0.42-0.93,0.93-0.93h19.92
			c0.52,0,0.93,0.42,0.93,0.93C305.35,425.39,304.93,425.81,304.42,425.81z"/>
		<linearGradient id="SVGID_12_" gradientUnits="userSpaceOnUse" x1="283.563" y1="430.6315" x2="305.3486" y2="430.6315">
			<stop  offset="0" style="stop-color:#B38D5D"/>
			<stop  offset="0.1872" style="stop-color:#8D6E3F"/>
			<stop  offset="0.3884" style="stop-color:#C79D61"/>
			<stop  offset="0.5455" style="stop-color:#EEBD78"/>
			<stop  offset="0.6275" style="stop-color:#FDC981"/>
			<stop  offset="0.7036" style="stop-color:#EBBB77"/>
			<stop  offset="0.8545" style="stop-color:#BE965C"/>
			<stop  offset="1" style="stop-color:#8D6E3F"/>
		</linearGradient>
		<path class="st11" d="M304.42,431.56H284.5c-0.52,0-0.93-0.42-0.93-0.93s0.42-0.93,0.93-0.93h19.92c0.52,0,0.93,0.42,0.93,0.93
			S304.93,431.56,304.42,431.56z"/>
		<linearGradient id="SVGID_13_" gradientUnits="userSpaceOnUse" x1="283.563" y1="436.3838" x2="305.3486" y2="436.3838">
			<stop  offset="0" style="stop-color:#B38D5D"/>
			<stop  offset="0.1872" style="stop-color:#8D6E3F"/>
			<stop  offset="0.3884" style="stop-color:#C79D61"/>
			<stop  offset="0.5455" style="stop-color:#EEBD78"/>
			<stop  offset="0.6275" style="stop-color:#FDC981"/>
			<stop  offset="0.7036" style="stop-color:#EBBB77"/>
			<stop  offset="0.8545" style="stop-color:#BE965C"/>
			<stop  offset="1" style="stop-color:#8D6E3F"/>
		</linearGradient>
		<path class="st12" d="M304.42,437.32H284.5c-0.52,0-0.93-0.42-0.93-0.93c0-0.52,0.42-0.93,0.93-0.93h19.92
			c0.52,0,0.93,0.42,0.93,0.93C305.35,436.9,304.93,437.32,304.42,437.32z"/>
		<linearGradient id="SVGID_14_" gradientUnits="userSpaceOnUse" x1="283.563" y1="436.3838" x2="305.3486" y2="436.3838">
			<stop  offset="0" style="stop-color:#B38D5D"/>
			<stop  offset="0.1872" style="stop-color:#8D6E3F"/>
			<stop  offset="0.3884" style="stop-color:#C79D61"/>
			<stop  offset="0.5455" style="stop-color:#EEBD78"/>
			<stop  offset="0.6275" style="stop-color:#FDC981"/>
			<stop  offset="0.7036" style="stop-color:#EBBB77"/>
			<stop  offset="0.8545" style="stop-color:#BE965C"/>
			<stop  offset="1" style="stop-color:#8D6E3F"/>
		</linearGradient>
		<path class="st13" d="M304.42,437.32H284.5c-0.52,0-0.93-0.42-0.93-0.93c0-0.52,0.42-0.93,0.93-0.93h19.92
			c0.52,0,0.93,0.42,0.93,0.93C305.35,436.9,304.93,437.32,304.42,437.32z"/>
		<linearGradient id="SVGID_15_" gradientUnits="userSpaceOnUse" x1="312.9997" y1="424.4382" x2="320.7829" y2="424.4382">
			<stop  offset="0" style="stop-color:#B38D5D"/>
			<stop  offset="0.1872" style="stop-color:#8D6E3F"/>
			<stop  offset="0.3884" style="stop-color:#C79D61"/>
			<stop  offset="0.5455" style="stop-color:#EEBD78"/>
			<stop  offset="0.6275" style="stop-color:#FDC981"/>
			<stop  offset="0.7036" style="stop-color:#EBBB77"/>
			<stop  offset="0.8545" style="stop-color:#BE965C"/>
			<stop  offset="1" style="stop-color:#8D6E3F"/>
		</linearGradient>
		<path class="st14" d="M316.89,430.89c-2.15,0-3.89-1.66-3.89-3.69c0-0.52,0.42-0.93,0.93-0.93c0.52,0,0.93,0.42,0.93,0.93
			c0,1.01,0.91,1.83,2.03,1.83c1.12,0,2.03-0.82,2.03-1.83c0-1.01-0.91-1.83-2.03-1.83c-2.15,0-3.89-1.66-3.89-3.69
			c0-2.04,1.75-3.69,3.89-3.69c2.15,0,3.89,1.66,3.89,3.69c0,0.52-0.42,0.93-0.93,0.93s-0.93-0.42-0.93-0.93
			c0-1.01-0.91-1.83-2.03-1.83c-1.12,0-2.03,0.82-2.03,1.83c0,1.01,0.91,1.83,2.03,1.83c2.15,0,3.89,1.66,3.89,3.69
			C320.78,429.24,319.04,430.89,316.89,430.89z"/>
		<linearGradient id="SVGID_16_" gradientUnits="userSpaceOnUse" x1="315.9588" y1="424.4383" x2="317.8243" y2="424.4383">
			<stop  offset="0" style="stop-color:#B38D5D"/>
			<stop  offset="0.1872" style="stop-color:#8D6E3F"/>
			<stop  offset="0.3884" style="stop-color:#C79D61"/>
			<stop  offset="0.5455" style="stop-color:#EEBD78"/>
			<stop  offset="0.6275" style="stop-color:#FDC981"/>
			<stop  offset="0.7036" style="stop-color:#EBBB77"/>
			<stop  offset="0.8545" style="stop-color:#BE965C"/>
			<stop  offset="1" style="stop-color:#8D6E3F"/>
		</linearGradient>
		<path class="st15" d="M316.89,432.01c-0.52,0-0.93-0.42-0.93-0.93V417.8c0-0.52,0.42-0.93,0.93-0.93c0.52,0,0.93,0.42,0.93,0.93
			v13.28C317.82,431.59,317.41,432.01,316.89,432.01z"/>
		<linearGradient id="SVGID_17_" gradientUnits="userSpaceOnUse" x1="306.9718" y1="424.4209" x2="326.8108" y2="424.4209">
			<stop  offset="0" style="stop-color:#B38D5D"/>
			<stop  offset="0.1872" style="stop-color:#8D6E3F"/>
			<stop  offset="0.3884" style="stop-color:#C79D61"/>
			<stop  offset="0.5455" style="stop-color:#EEBD78"/>
			<stop  offset="0.6275" style="stop-color:#FDC981"/>
			<stop  offset="0.7036" style="stop-color:#EBBB77"/>
			<stop  offset="0.8545" style="stop-color:#BE965C"/>
			<stop  offset="1" style="stop-color:#8D6E3F"/>
		</linearGradient>
		<path class="st16" d="M316.89,434.34c-5.47,0-9.92-4.45-9.92-9.92c0-5.47,4.45-9.92,9.92-9.92c5.47,0,9.92,4.45,9.92,9.92
			C326.81,429.89,322.36,434.34,316.89,434.34z M316.89,416.37c-4.44,0-8.05,3.61-8.05,8.05c0,4.44,3.61,8.05,8.05,8.05
			c4.44,0,8.05-3.61,8.05-8.05C324.95,419.98,321.33,416.37,316.89,416.37z"/>
		<linearGradient id="SVGID_18_" gradientUnits="userSpaceOnUse" x1="281.252" y1="446.1779" x2="289.892" y2="446.1779">
			<stop  offset="0" style="stop-color:#B38D5D"/>
			<stop  offset="0.1872" style="stop-color:#8D6E3F"/>
			<stop  offset="0.3884" style="stop-color:#C79D61"/>
			<stop  offset="0.5455" style="stop-color:#EEBD78"/>
			<stop  offset="0.6275" style="stop-color:#FDC981"/>
			<stop  offset="0.7036" style="stop-color:#EBBB77"/>
			<stop  offset="0.8545" style="stop-color:#BE965C"/>
			<stop  offset="1" style="stop-color:#8D6E3F"/>
		</linearGradient>
		<path class="st17" d="M288.96,447.11h-6.77c-0.52,0-0.93-0.42-0.93-0.93s0.42-0.93,0.93-0.93h6.77c0.52,0,0.93,0.42,0.93,0.93
			S289.47,447.11,288.96,447.11z"/>
	</g>
</g>
</svg>
